<?xml version="1.0" encoding="utf-8"?>
<!-- Generator: Adobe Illustrator 23.0.4, SVG Export Plug-In . SVG Version: 6.00 Build 0)  -->
<svg version="1.1" id="Layer_1" xmlns="http://www.w3.org/2000/svg" xmlns:xlink="http://www.w3.org/1999/xlink" x="0px" y="0px"
	 viewBox="0 0 160 100" style="enable-background:new 0 0 160 100;" xml:space="preserve">
<style type="text/css">
	.st0{fill:#572D99;}
	.st1{fill:#9A81C2;}
</style>
<g id="Artwork">
	<g>
		<g>
			<g>
				<circle class="st0" cx="80" cy="24.62" r="23.96"/>
				<path class="st1" d="M103.96,44.8V4.43c0-6.66-9.62-1.95-11.98-0.56C84.9,8.03,80.01,15.75,80.01,24.62s4.97,16.77,11.97,20.75
					C94.45,46.77,103.96,51.48,103.96,44.8z"/>
			</g>
			<g>
				<path class="st0" d="M114.69,60.76c1.08,0,1.95-0.84,1.95-1.92c0-1.08-0.87-1.95-1.95-1.95c-1.08,0-1.92,0.87-1.92,1.95
					C112.77,59.93,113.61,60.76,114.69,60.76z"/>
				<path class="st0" d="M19.49,64.76c-1.11-0.64-2.41-1.02-3.79-1.02c-4.19,0-7.58,3.39-7.58,7.58c0,4.19,3.39,7.58,7.58,7.58
					c1.38,0,2.67-0.37,3.79-1.02c0.76,0.44,3.79,1.93,3.79-0.18V64.93C23.28,62.83,20.25,64.31,19.49,64.76z M20.12,74.01
					c-0.99,1.33-2.51,2.07-3.99,2.07c-2.82,0-4.83-2.2-4.83-4.8c0-2.54,1.86-4.8,4.67-4.8c1.76,0,3.25,0.9,4.15,2.07V74.01z"/>
				<path class="st0" d="M97.8,64.76c-1.11-0.64-2.41-1.02-3.79-1.02c-4.19,0-7.58,3.39-7.58,7.58c0,4.19,3.39,7.58,7.58,7.58
					c1.38,0,2.67-0.37,3.79-1.02c0.76,0.44,3.79,1.93,3.79-0.18V64.93C101.6,62.83,98.57,64.31,97.8,64.76z M98.43,74.01
					c-0.99,1.33-2.51,2.07-3.99,2.07c-2.82,0-4.83-2.2-4.83-4.8c0-2.54,1.86-4.8,4.67-4.8c1.76,0,3.25,0.9,4.15,2.07V74.01z"/>
				<path class="st0" d="M130.65,64.76c-1.11-0.64-2.41-1.02-3.79-1.02c-4.19,0-7.58,3.39-7.58,7.58c0,4.19,3.39,7.58,7.58,7.58
					c1.38,0,2.67-0.37,3.79-1.02c0.76,0.44,3.79,1.93,3.79-0.18V64.93C134.44,62.83,131.41,64.31,130.65,64.76z M131.28,74.01
					c-0.99,1.33-2.51,2.07-3.99,2.07c-2.82,0-4.83-2.2-4.83-4.8c0-2.54,1.86-4.8,4.67-4.8c1.76,0,3.25,0.9,4.15,2.07V74.01z"/>
				<path class="st0" d="M44.07,71.9c0.16,2.45,2.17,4.4,4.7,4.4c1.46,0,2.47-0.48,3.23-1.08c0.6-0.47,1.46-0.41,2.02,0.11
					l0.85,0.81c-1.08,1.39-3.16,2.72-6.13,2.72c-4.24,0-7.83-3.22-7.83-7.58s3.28-7.58,7.4-7.58c4.05,0,6.99,3.28,6.99,7.58
					c0,0.12,0,0.34-0.03,0.62H44.07z M44.11,69.43h7.92c-0.43-1.86-2.1-3.16-3.84-3.16C46.31,66.27,44.61,67.54,44.11,69.43"/>
				<path class="st0" d="M140.8,65.4c0.77-0.74,2.26-1.7,4.36-1.7c3.85,0,6.72,2.15,6.72,7.74v5.67c0,0.8-0.65,1.45-1.45,1.45h-1.72
					v-7.27c0-3.15-1.64-4.8-3.78-4.8c-1.92,0-3.16,1.02-4.03,2.07v8.54c0,0.8-0.65,1.45-1.45,1.45h-1.72V65.46
					c0-0.8,0.65-1.45,1.45-1.45h1.63v1.39H140.8z"/>
				<path class="st0" d="M30.72,75.93l7.33-9.2c0.44-0.56,0.68-1.24,0.68-1.95v-0.76H28.62c-0.8,0-1.56,0.59-1.56,1.37v2.23h0.81
					c0.59,0,1.1-0.39,1.28-0.97h5.42l-7.3,9.2c-0.44,0.55-0.68,1.24-0.68,1.95v0.77h11.12c0.87,0,1.57-0.7,1.57-1.57v-1.06h-8.56
					V75.93z"/>
				<path class="st0" d="M107.14,60.76c1.08,0,1.95-0.84,1.95-1.92c0-1.08-0.87-1.95-1.95-1.95c-1.08,0-1.92,0.87-1.92,1.95
					C105.22,59.93,106.06,60.76,107.14,60.76z"/>
				<path class="st0" d="M104.56,64.01v0.69c0,0.7,0.47,1.27,1.12,1.4l0,0v12.45h1.63c0.86,0,1.57-0.7,1.57-1.56V64.01H104.56z"/>
				<path class="st0" d="M116.43,69.52L116.43,69.52v-5.51h-4.32v0.69c0,0.7,0.47,1.27,1.12,1.4l0,0v12.95
					c0,1.81-0.17,3.03-2.51,4.67l1.84,2.61c3.57-2.5,3.87-4.97,3.87-7.29V69.52z"/>
				<path class="st0" d="M84.43,71.32c0-4.83-4.14-7.62-7.49-7.62c-1.58,0-3.16,0.46-4.46,1.58v-8.7h-1.61
					c-0.86,0-1.57,0.72-1.57,1.57V77.7c0,2.11,2.51,0.6,3.17-0.23c0.24,0.14,2.03,1.42,4.45,1.42
					C81.04,78.9,84.43,75.47,84.43,71.32z M72.49,74.01v-5.45c0.89-1.17,2.36-2.06,4.11-2.07c2.81,0.01,4.66,2.26,4.66,4.8
					c0,3.1-2.51,4.8-4.81,4.8C74.23,76.08,72.83,74.47,72.49,74.01z"/>
				<path class="st0" d="M66.87,63.74c-3.73-0.31-4.63,1.17-5.18,1.95v-1.67h-1.61c-0.87,0-1.57,0.7-1.57,1.57v12.98h1.61
					c0.87,0,1.57-0.7,1.57-1.57v-8.06c0.57-1.39,2.12-2.19,3.64-2.19c0.46,0,0.83,0.06,1.17,0.15L66.87,63.74z"/>
			</g>
		</g>
		<g>
			<polygon class="st0" points="30.49,92.89 32.64,92.89 32.64,99.23 33.45,99.23 33.45,92.89 35.59,92.89 35.59,92.12 30.49,92.12 
							"/>
			<path class="st0" d="M41.41,92.02c-2.05,0-3.66,1.61-3.66,3.66s1.61,3.66,3.66,3.66s3.66-1.61,3.66-3.66
				C45.07,93.62,43.46,92.02,41.41,92.02z M41.41,98.56c-1.6,0-2.86-1.27-2.86-2.88c0-1.62,1.26-2.88,2.86-2.88s2.86,1.27,2.86,2.88
				S43.01,98.56,41.41,98.56z"/>
			<path class="st0" d="M52.34,96.81c0,1.1-0.69,1.75-1.85,1.75c-1.15,0-1.84-0.65-1.84-1.75v-4.68h-0.8v4.68
				c0,1.51,1.06,2.53,2.64,2.53c1.58,0,2.65-1.02,2.65-2.53v-4.68h-0.8C52.34,92.13,52.34,96.81,52.34,96.81z"/>
			<path class="st0" d="M61.36,94.28c0-1.19-0.97-2.16-2.16-2.16h-2.83v7.11h0.8v-2.8h1.93l1.64,2.8h0.92l-1.73-2.93
				C60.78,96,61.36,95.19,61.36,94.28z M57.16,92.89h2.03c0.75,0,1.36,0.62,1.36,1.39c0,0.76-0.61,1.38-1.36,1.38h-2.03V92.89z"/>
			<rect x="64.25" y="92.12" class="st0" width="0.8" height="7.11"/>
			<path class="st0" d="M70.53,95.23c-0.97-0.32-1.57-0.55-1.57-1.26c0-0.7,0.56-1.18,1.4-1.18c0.97,0,1.42,0.59,1.63,1.09
				l0.06,0.15l0.69-0.38l-0.05-0.12c-0.4-0.95-1.27-1.52-2.32-1.52c-1.3,0-2.21,0.81-2.21,1.97c0,1.28,1.08,1.63,2.26,2.02
				c1.13,0.36,1.67,0.65,1.67,1.33c0,0.77-0.59,1.22-1.58,1.22c-1,0-1.68-0.45-1.91-1.27l-0.05-0.17l-0.7,0.41l0.03,0.11
				c0.35,1.07,1.33,1.71,2.63,1.71c1.43,0,2.38-0.81,2.38-2.01C72.89,96.01,71.69,95.62,70.53,95.23z"/>
			<polygon class="st0" points="78.96,96.03 76.6,92.12 75.74,92.12 75.74,99.23 76.53,99.23 76.53,93.53 78.84,97.36 79.09,97.36 
				81.39,93.53 81.39,99.23 82.19,99.23 82.19,92.12 81.32,92.12 			"/>
			<path class="st0" d="M94.33,95.53c0.46-0.34,0.73-0.87,0.73-1.47c0-1.07-0.87-1.93-1.94-1.93h-2.86v7.11h3.09c1.1,0,2-0.9,2-2
				C95.35,96.51,94.96,95.87,94.33,95.53z M93.35,98.46h-2.29v-2.47h2.29c0.66,0,1.2,0.55,1.2,1.23
				C94.55,97.91,94.01,98.46,93.35,98.46z M93.12,95.22h-2.06v-2.33h2.06c0.63,0,1.14,0.52,1.14,1.17
				C94.26,94.7,93.75,95.22,93.12,95.22z"/>
			<path class="st0" d="M101.51,92.02c-2.05,0-3.66,1.61-3.66,3.66s1.61,3.66,3.66,3.66s3.66-1.61,3.66-3.66
				C105.18,93.62,103.57,92.02,101.51,92.02z M101.51,98.56c-1.6,0-2.86-1.27-2.86-2.88c0-1.62,1.26-2.88,2.86-2.88
				s2.86,1.27,2.86,2.88C104.38,97.29,103.12,98.56,101.51,98.56z"/>
			<path class="st0" d="M110.25,92.12h-0.74l-2.76,7.11h0.85l0.66-1.74h3.23l0.66,1.74H113l-2.72-7.02L110.25,92.12z M111.2,96.73
				h-2.63l1.32-3.43L111.2,96.73z"/>
			<path class="st0" d="M120.55,94.28c0-1.19-0.97-2.16-2.16-2.16h-2.83v7.11h0.8v-2.8h1.93l1.64,2.8h0.92l-1.73-2.93
				C119.97,96,120.55,95.19,120.55,94.28z M116.36,92.89h2.03c0.75,0,1.36,0.62,1.36,1.39c0,0.76-0.61,1.38-1.36,1.38h-2.03V92.89z"
				/>
			<path class="st0" d="M126.15,92.12h-2.71v7.11h2.71c1.91,0,3.36-1.53,3.36-3.55C129.51,93.65,128.06,92.12,126.15,92.12z
				 M126.15,98.46h-1.91v-5.57h1.91c1.46,0,2.57,1.2,2.57,2.78C128.72,97.26,127.61,98.46,126.15,98.46z"/>
		</g>
	</g>
</g>
<g id="Minimum_Clear_Space">
</g>
<g id="Print_Info.">
</g>
</svg>
