<svg version="1.1" id="b74319cc-ef5d-49db-bb57-8cd82677ebb0" xmlns="http://www.w3.org/2000/svg" xmlns:xlink="http://www.w3.org/1999/xlink" x="0px" y="0px" width="122px" height="88px" viewBox="0 0 122 88" enable-background="new 0 0 122 88" xml:space="preserve">
 <title>
  logo
 </title>
 <path fill="#003366" d="M79.206,33.979c-2.476,7.498-9.546,12.927-17.863,12.927c-10.372,0-18.81-8.438-18.81-18.81
	c0-10.372,8.438-18.811,18.81-18.811c3.158,0,6.135,0.786,8.75,2.167l0.674-0.592c-2.8-1.537-6.011-2.413-9.424-2.413
	c-10.834,0-19.648,8.814-19.648,19.649c0,10.834,8.813,19.647,19.648,19.647c8.801,0,16.269-5.816,18.762-13.808L79.206,33.979z">
 </path>
 <path fill="#00B2E2" d="M48.754,34.151c11.344-1.045,22.583-2.783,33.662-5.574c-0.172,0.766-0.343,1.53-0.515,2.296
	C67.729,34.104,57.842,34.401,48.754,34.151">
 </path>
 <path fill="#00B2E2" d="M50.559,33.024c10.624-1.669,21.502-4.313,32.674-8.092c-0.176,0.784-0.351,1.567-0.526,2.351
	C70.315,31.179,59.748,32.918,50.559,33.024">
 </path>
 <path fill="#57C8E7" d="M52.289,31.827c10.42-2.598,21.03-6.235,31.77-10.588c-0.175,0.788-0.352,1.576-0.528,2.365
	C72.153,28.071,61.629,31.012,52.289,31.827">
 </path>
 <path fill="#98DAE9" d="M54.015,30.41c10.506-3.192,20.84-7.995,31.068-13.749c-0.216,0.967-0.432,1.934-0.648,2.901
	C72.185,25.645,61.806,29.54,54.015,30.41">
 </path>
 <path fill="#57C8E7" d="M56.251,28.912c11.799-5.706,21.392-11.618,30.034-17.62c-0.238,1.065-0.477,2.13-0.715,3.195
	C75.771,20.743,65.991,25.925,56.251,28.912">
 </path>
 <path fill="#00B2E2" d="M57.97,27.058c11.602-7.334,21.666-14.795,29.803-22.415c-0.29,1.301-0.582,2.604-0.873,3.904
	C77.274,16.853,67.423,22.573,57.97,27.058">
 </path>
 <path fill="#00B2E2" d="M88.437,0c-1.095,0.029-2.188,0.057-3.283,0.085c-4.058,4.961-8.15,9.253-12.264,13.173
	c-4.458,4.247-8.938,8.056-13.422,11.803C69.29,18.433,79.036,11.01,88.437,0">
 </path>
 <rect y="82.929" fill="#00B2E2" width="26.74" height="0.705">
 </rect>
 <rect x="95.063" y="82.929" fill="#00B2E2" width="26.94" height="0.705">
 </rect>
 <path fill="#003366" d="M6.77,62.999L6.77,62.999l-3.157,6.295h6.295L6.77,62.999z M3.013,70.553l-1.618,3.158
	c-0.36,0.74-1.679,0.22-1.319-0.579L6.111,61.24c0.12-0.261,0.399-0.381,0.659-0.381c0.26,0,0.5,0.12,0.64,0.381l6.016,11.832
	c0.52,0.858-0.959,1.358-1.338,0.579l-1.56-3.099H3.013z">
 </path>
 <path fill="#003366" d="M17.085,72.637h8.535c0.939,0,0.959,1.369,0,1.43h-9.874c-0.779,0-1.019-0.641-0.579-1.201l8.955-10.637
	h-8.095c-0.879,0-0.9-1.307,0-1.369h9.513c0.82,0,1.04,0.643,0.58,1.244L17.085,72.637z">
 </path>
 <path fill="#003366" d="M29.838,72.696h7.895c0.839,0,0.959,1.37,0,1.37h-8.416c-0.559,0-0.919-0.414-0.919-0.912V61.753
	c0-0.478,0.36-0.894,0.919-0.894h8.436c0.859,0,0.819,1.329-0.02,1.329h-7.895v4.674h7.516c0.799,0,0.839,1.328,0,1.328h-7.516
	V72.696z">
 </path>
 <path fill="#003366" d="M42.63,68.05L42.63,68.05h4.039c2.618,0,3.757-1.25,3.717-2.785c-0.02-1.682-1.399-3.032-3.717-3.032H42.63
	V68.05z M42.63,69.34v3.973c0,0.943-1.458,0.943-1.458,0.021V61.576c0-0.43,0.299-0.717,0.739-0.717h4.737
	c3.458,0,5.217,2.008,5.217,4.405c0,2.067-1.1,3.563-3.558,3.992l3.239,3.585c0.759,0.779-0.34,1.68-1,0.983l-4.037-4.485H42.63z">
 </path>
 <path fill="#003366" d="M55.784,72.718L55.784,72.718h4.478c1.758,0,3.697-0.479,3.697-2.575c0-1.641-1.359-2.346-3.098-2.346
	h-5.077V72.718z M55.784,62.21L55.784,62.21v4.235h4.077c1.719,0,3.218-0.476,3.218-1.993c0-1.786-2.039-2.242-3.277-2.242H55.784z
	 M60.262,74.066h-5.198c-0.398,0-0.739-0.331-0.739-0.747V61.606c0-0.414,0.34-0.747,0.739-0.747h4.738
	c1.858,0,4.737,0.645,4.737,3.593c0,1.08-0.5,2.036-1.54,2.471c1.459,0.479,2.459,1.538,2.459,3.22
	C65.458,73.236,62.78,74.066,60.262,74.066z">
 </path>
 <path fill="#003366" d="M73.254,62.999L73.254,62.999l-3.157,6.295h6.296L73.254,62.999z M69.496,70.553l-1.618,3.158
	c-0.36,0.74-1.679,0.22-1.319-0.579l6.036-11.892c0.12-0.261,0.399-0.381,0.659-0.381s0.499,0.12,0.64,0.381l6.017,11.832
	c0.52,0.858-0.959,1.358-1.339,0.579l-1.56-3.099H69.496z">
 </path>
 <path fill="#003366" d="M81.83,61.59c0-0.987,1.498-0.967,1.498,0v11.795c0,0.907-1.498,0.946-1.498,0V61.59z">
 </path>
 <path fill="#003366" d="M93.202,62.204h-3.838c-0.998,0-0.998-1.345,0-1.345h4.498c0.359,0,0.68,0.307,0.72,0.674v7.805
	c0.02,2.75-2.519,4.747-5.157,4.747c-2.539,0-4.597-1.834-4.737-4.279c-0.06-0.938,1.399-1.121,1.479-0.021
	c0.12,1.855,1.578,2.936,3.258,2.936c1.939,0,3.777-1.448,3.777-3.383V62.204z">
 </path>
 <path fill="#003366" d="M102.537,62.999L102.537,62.999l-3.157,6.295h6.295L102.537,62.999z M98.779,70.553l-1.618,3.158
	c-0.359,0.74-1.679,0.22-1.318-0.579l6.035-11.892c0.12-0.261,0.399-0.381,0.659-0.381s0.5,0.12,0.64,0.381l6.017,11.832
	c0.52,0.858-0.96,1.358-1.339,0.579l-1.559-3.099H98.779z">
 </path>
 <path fill="#003366" d="M120.268,61.565c0-0.848,1.52-0.888,1.52,0v11.577c0,1.01-1.38,1.109-1.799,0.402l-7.475-10.104l0.159,2.784
	v7.119c0,0.989-1.52,1.01-1.52,0V61.787c0-1.009,1.119-1.171,1.619-0.423l7.695,10.387l-0.2-3.046V61.565z">
 </path>
 <path fill="#003366" d="M35.789,79.308L35.789,79.308l-2.185,4.403h4.356L35.789,79.308z M33.188,84.592L32.068,86.8
	c-0.249,0.518-1.161,0.155-0.912-0.405l4.176-8.316c0.083-0.183,0.276-0.268,0.457-0.268c0.18,0,0.346,0.085,0.443,0.268
	l4.163,8.275c0.36,0.602-0.664,0.95-0.927,0.405l-1.079-2.167H33.188z">
 </path>
 <path fill="#003366" d="M41.72,78.325c0-0.692,1.037-0.679,1.037,0v8.271c0,0.637-1.037,0.664-1.037,0V78.325z">
 </path>
 <path fill="#003366" d="M45.869,82.84L45.869,82.84h2.793c1.813,0,2.601-0.873,2.573-1.947c-0.014-1.177-0.968-2.121-2.573-2.121
	h-2.793V82.84z M45.869,83.742v2.779c0,0.659-1.01,0.659-1.01,0.014v-8.223c0-0.301,0.208-0.502,0.512-0.502h3.277
	c2.393,0,3.611,1.404,3.611,3.082c0,1.446-0.762,2.492-2.463,2.793l2.241,2.507c0.525,0.545-0.234,1.174-0.692,0.688l-2.794-3.138
	H45.869z">
 </path>
 <path fill="#003366" d="M54.47,87.049c-0.374,0-0.525-0.185-0.525-0.53v-8.211c0-0.674,1.023-0.674,1.023,0v7.797h5.173
	c0.706,0,0.706,0.944,0,0.944H54.47z">
 </path>
 <path fill="#003366" d="M61.813,78.325c0-0.692,1.037-0.679,1.037,0v8.271c0,0.637-1.037,0.664-1.037,0V78.325z">
 </path>
 <path fill="#003366" d="M71.189,78.267c0-0.595,1.051-0.625,1.051,0V86.4c0,0.708-0.953,0.778-1.245,0.283l-5.172-7.101l0.109,1.956
	v5.002c0,0.695-1.051,0.709-1.051,0v-8.119c0-0.708,0.775-0.822,1.121-0.298l5.325,7.299l-0.139-2.141V78.267z">
 </path>
 <path fill="#003366" d="M75.503,86.09h5.463c0.581,0,0.664,0.959,0,0.959h-5.823c-0.387,0-0.635-0.29-0.635-0.639v-7.986
	c0-0.334,0.248-0.626,0.635-0.626h5.837c0.595,0,0.567,0.931-0.014,0.931h-5.463v3.273h5.2c0.553,0,0.581,0.931,0,0.931h-5.2V86.09z
	">
 </path>
 <path fill="#003366" d="M83.62,84.645c0.359,1.153,1.895,1.404,3.001,1.404c1.176,0,3.001-0.361,3.001-1.766
	c0-1.209-1.452-1.309-2.974-1.433c-1.908-0.153-3.955-0.332-3.955-2.405c0-1.835,2.103-2.654,3.789-2.654
	c1.452,0,3.265,0.347,3.846,1.932c0.207,0.556-0.733,0.807-0.94,0.334c-0.416-1.057-1.896-1.237-2.892-1.237
	c-0.926,0-2.724,0.375-2.724,1.64c0,1.21,1.383,1.335,2.987,1.461c1.895,0.165,3.928,0.265,3.928,2.35
	c0,2.127-2.365,2.779-4.066,2.779c-1.41,0-3.568-0.485-4.024-2.154C82.43,84.283,83.509,84.075,83.62,84.645">
 </path>
</svg>