<?xml version="1.0" encoding="UTF-8"?>
<svg version="1.1" xmlns="http://www.w3.org/2000/svg" width="700" height="417">
<path d="M0 0 C1.22123062 0.00264359 1.22123062 0.00264359 2.46713257 0.00534058 C20.42270673 0.09193984 35.36518809 3.28801366 51.58984375 11.046875 C56.4623239 13.4272258 56.4623239 13.4272258 61.62817383 12.88427734 C63.72804111 11.92515937 65.76694655 10.88243214 67.8125 9.8125 C80.47403946 3.57879257 92.65198525 -0.21603765 106.875 1.5 C111.00303412 3.22522031 113.56954838 4.61713412 115.875 8.5 C117.11327825 12.21483474 117.03502797 15.66808505 117.04667664 19.5381012 C117.0562003 20.78092964 117.0562003 20.78092964 117.06591636 22.04886574 C117.08601502 24.83538311 117.09903168 27.62188851 117.11206055 30.40844727 C117.12491073 32.40249383 117.13816506 34.39653783 117.15179443 36.39057922 C117.18745003 41.81649874 117.21666237 47.24243479 117.24418616 52.668401 C117.26168088 56.05906627 117.28055864 59.4497209 117.29993629 62.8403759 C117.36752777 74.67196323 117.429924 86.50356511 117.48754883 98.33520508 C117.54136937 109.35789803 117.60647214 120.38048508 117.67688721 131.40308338 C117.73685185 140.86815639 117.78889098 150.33325171 117.83481437 159.7984032 C117.86237165 165.45045317 117.89311029 171.10244148 117.93182945 176.75442696 C117.96800858 182.07557138 117.99429466 187.39667558 118.0131073 192.71790886 C118.02165307 194.6665369 118.03367006 196.61515343 118.04949379 198.56373596 C118.22765095 221.07701622 118.22765095 221.07701622 114.3125 228.4375 C109.12306289 232.82856217 103.63926227 233.79096917 96.9375 233.5625 C84.74640704 232.24917383 72.92555113 227.58971126 62.35546875 221.50390625 C59.28404979 220.26082803 57.99968891 220.47448577 54.875 221.5 C52.93857593 222.37415715 51.02332113 223.2959215 49.125 224.25 C21.05771206 237.4581355 -11.22191988 238.02966159 -40.38500977 228.10595703 C-54.11491844 223.12490158 -65.95744861 215.82451494 -77.125 206.5 C-77.87136719 205.90574219 -78.61773437 205.31148437 -79.38671875 204.69921875 C-85.1136548 199.984904 -89.61748364 194.36303758 -94.125 188.5 C-94.7334375 187.71882812 -95.341875 186.93765625 -95.96875 186.1328125 C-114.68032171 160.8721907 -120.75022549 128.87415111 -116.54345703 98.1328125 C-112.70999606 74.01376752 -102.13726542 52.9815693 -85.125 35.5 C-84.35671875 34.66984375 -83.5884375 33.8396875 -82.796875 32.984375 C-69.2558682 18.74447752 -51.12876291 8.44691961 -32.125 3.5 C-31.15336914 3.24105957 -30.18173828 2.98211914 -29.18066406 2.71533203 C-19.39798198 0.3450973 -10.0248204 -0.05805905 0 0 Z " fill="#582588" transform="translate(350.125,-0.5)"/>
<path d="M0 0 C4.16846963 4.59969063 4.1537923 9.09641848 4.17167664 15.0381012 C4.17802574 15.86665349 4.18437485 16.69520579 4.19091636 17.54886574 C4.21101502 20.33538311 4.22403168 23.12188851 4.23706055 25.90844727 C4.24991073 27.90249383 4.26316506 29.89653783 4.27679443 31.89057922 C4.31245003 37.31649874 4.34166237 42.74243479 4.36918616 48.168401 C4.38668088 51.55906627 4.40555864 54.9497209 4.42493629 58.3403759 C4.49252777 70.17196323 4.554924 82.00356511 4.61254883 93.83520508 C4.66636937 104.85789803 4.73147214 115.88048508 4.80188721 126.90308338 C4.86185185 136.36815639 4.91389098 145.83325171 4.95981437 155.2984032 C4.98737165 160.95045317 5.01811029 166.60244148 5.05682945 172.25442696 C5.09300858 177.57557138 5.11929466 182.89667558 5.1381073 188.21790886 C5.14665307 190.1665369 5.15867006 192.11515343 5.17449379 194.06373596 C5.35265095 216.57701622 5.35265095 216.57701622 1.4375 223.9375 C-3.75193711 228.32856217 -9.23573773 229.29096917 -15.9375 229.0625 C-29.85297793 227.55065485 -42.82639659 221.61523786 -55 215 C-55 214.34 -55 213.68 -55 213 C-55.7115625 212.74863281 -56.423125 212.49726563 -57.15625 212.23828125 C-79.75748316 202.39681022 -96.88752657 176.31516235 -105.75 154.4375 C-117.07119645 124.79188028 -115.43445533 92.84929768 -103.08544922 63.85253906 C-93.99824958 44.00534722 -79.07243631 27.33613235 -61.12890625 15.15625 C-58.05162787 13.10937586 -58.05162787 13.10937586 -55.5859375 10.96875 C-41.95916677 0.59429011 -15.93341368 -9.62594711 0 0 Z " fill="#ED5F58" transform="translate(463,4)"/>
<path d="M0 0 C0 13.53 0 27.06 0 41 C4.95 38.525 4.95 38.525 10 36 C19.91068849 33.52232788 29.91995393 34.24979071 39 39 C47.43994134 44.27496334 53.84214151 51.50009839 57.3046875 60.8984375 C59.93037463 72.61077221 58.92244251 84.20825811 52.4921875 94.38671875 C46.38654892 102.97721024 37.78600842 108.59289004 27.40625 110.46875 C16.9748026 111.75803002 8.49447809 109.16140954 -1 105 C-1.639375 105.639375 -2.27875 106.27875 -2.9375 106.9375 C-6.91930882 109.61912635 -10.294792 109.79498004 -15 110 C-17.04720974 106.9291854 -17.25164791 106.30103101 -17.26742554 102.83853149 C-17.27595551 101.99180374 -17.28448547 101.14507599 -17.29327393 100.27268982 C-17.29236755 99.34690628 -17.29146118 98.42112274 -17.29052734 97.46728516 C-17.29724457 96.48976791 -17.30396179 95.51225067 -17.31088257 94.50511169 C-17.32991557 91.26637724 -17.33378947 88.02784943 -17.3359375 84.7890625 C-17.34236182 82.54088251 -17.3490899 80.29270336 -17.35610962 78.04452515 C-17.36809572 73.32849183 -17.37178908 68.61253185 -17.37060547 63.89648438 C-17.37040222 57.85130074 -17.39770446 51.80658693 -17.43214989 45.76151466 C-17.45437999 41.11697223 -17.4584442 36.47254354 -17.45738602 31.82795334 C-17.45974784 29.59919999 -17.46860388 27.37044378 -17.48405075 25.14174271 C-17.50363127 22.02466119 -17.49790345 18.90860163 -17.48583984 15.79150391 C-17.49707886 14.86976883 -17.50831787 13.94803375 -17.51989746 12.99836731 C-17.47899165 8.84210591 -17.3473237 6.57473165 -15.15713501 2.95053101 C-10.34926901 -1.39685183 -7.15481515 0 0 0 Z M1.21948242 57.93505859 C-1.46698659 62.48403856 -0.89490992 67.87353472 -0.8125 73 C-0.84408203 74.16273438 -0.87566406 75.32546875 -0.90820312 76.5234375 C-0.9862006 82.66326145 -0.9862006 82.66326145 1.49926758 88.08251953 C7.28411191 93.14071698 13.67556324 95.69546944 21.37890625 95.40234375 C27.20318862 94.50830339 32.08072599 92.25796942 35.92578125 87.734375 C40.715789 80.64653537 41.77684155 75.59920434 41 67 C39.17146746 60.90820408 35.48092549 55.99940165 29.92578125 52.80859375 C19.91266232 47.9295358 9.04675467 49.71497951 1.21948242 57.93505859 Z " fill="#572489" transform="translate(314,271)"/>
<path d="M0 0 C3.68433352 1.22811117 4.54188422 0.28038728 7.8828125 -1.296875 C11.81831706 -2.60386913 15.90421595 -2.22250738 20 -2 C22.16510406 1.51789493 22.25829945 4.36063996 22.2746582 8.44921875 C22.28419022 9.75737549 22.29372223 11.06553223 22.30354309 12.41333008 C22.30328168 13.83805366 22.30234472 15.26277725 22.30078125 16.6875 C22.30466946 18.15193808 22.30900439 19.61637504 22.31376648 21.08081055 C22.32122142 24.14733541 22.32094236 27.21374511 22.31567383 30.28027344 C22.30987481 34.20794151 22.32682368 38.13513868 22.3500185 42.06272888 C22.36475556 45.08592479 22.3656277 48.1090072 22.36250877 51.13223267 C22.36302183 52.58030125 22.36825668 54.02837621 22.37832069 55.47640991 C22.39066814 57.5011637 22.38195539 59.52601277 22.37231445 61.55078125 C22.37294388 62.70231689 22.3735733 63.85385254 22.3742218 65.0402832 C21.95930814 68.32183158 21.3803033 69.7249147 19 72 C14.0551349 72.60726414 10.66541896 71.96588422 6 70.3125 C1.47121455 68.83272968 -0.58716474 69.18449608 -4.8125 71.15234375 C-13.41951817 74.48756329 -23.14612868 73.21304891 -31.5625 70.03125 C-41.19036591 65.68696904 -47.77257516 58.65231767 -52 49 C-54.78875839 39.43058202 -54.76219981 26.18547738 -50.5 17.1875 C-44.42861514 7.26149173 -35.93487478 0.29634632 -24.4921875 -2.64453125 C-15.81749839 -3.88183017 -8.18794377 -2.99862077 0 0 Z M-32.81640625 21.078125 C-36.14237293 26.47870456 -37.77072432 31.61399851 -37 38 C-35.04149788 45.61229125 -31.60059727 50.67335151 -25 55 C-19.69611381 57.53256302 -14.78371275 57.77219129 -9 57 C-4.09596925 55.24131311 0.59133417 53.04259454 4 49 C5.60570584 44.18288248 5.43394947 39.29635561 5.5625 34.25 C5.62501953 33.1775 5.68753906 32.105 5.75195312 31 C5.91510988 24.99162904 5.91510988 24.99162904 3.34179688 19.74194336 C-2.07988051 14.84328794 -7.77885407 12.62868131 -14.9375 11.5625 C-22.21327876 12.60189697 -28.32364513 15.12171649 -32.81640625 21.078125 Z " fill="#582489" transform="translate(53,309)"/>
<path d="M0 0 C3.05781208 1.40225034 3.05781208 1.40225034 6.0625 -0.4375 C10.52730498 -2.51725958 15.1528565 -2.68232185 20 -2 C22.80725695 0.80725695 22.25971107 2.5805679 22.2746582 6.51342773 C22.27976913 7.18189728 22.28488007 7.85036682 22.29014587 8.53909302 C22.30407272 10.75401708 22.3030828 12.96863105 22.30078125 15.18359375 C22.30466662 16.72054663 22.30900096 18.25749844 22.31376648 19.79444885 C22.32123542 23.0183561 22.32093267 26.24215385 22.31567383 29.46606445 C22.30987953 33.60014424 22.32680559 37.73377595 22.3500185 41.86778164 C22.36474178 45.04277676 22.36562946 48.21766364 22.36250877 51.39268684 C22.36302274 52.91694081 22.36827461 54.44120073 22.37832069 55.96542168 C22.39064053 58.09630411 22.38392119 60.22630962 22.37231445 62.35717773 C22.37294388 63.57026108 22.3735733 64.78334442 22.3742218 66.03318787 C22 69 22 69 20.70329285 70.89173889 C17.7015894 72.84482124 14.40949628 72.48113101 11 72 C9.4880204 71.47054373 7.98759774 70.90702436 6.5 70.3125 C2.20427817 68.73910955 0.27390513 69.29182985 -3.77734375 71.15234375 C-12.39195771 74.43770619 -22.21600486 73.31359806 -30.59765625 69.9609375 C-41.5061754 64.86042327 -47.4121312 58.02999207 -52.3125 47.0625 C-55.05235675 34.85768356 -54.11434037 24.37263118 -47.69140625 13.5078125 C-42.02089027 5.10025763 -34.92360863 1.30362558 -25.625 -2.3125 C-16.55663846 -4.03236167 -8.61366159 -3.15452882 0 0 Z M-29.8125 18.25 C-34.86232272 24.59834856 -36.76954223 29.80673476 -36.4375 38.03515625 C-35.57379071 43.88832905 -33.33013905 48.06569893 -28.76953125 51.8515625 C-22.27883674 56.31987096 -16.88830949 58.00133689 -9 57 C-3.51833314 55.04505461 1.24160034 52.51133772 5 48 C5.82535857 43.72740011 5.60269491 39.40591445 5.5625 35.0625 C5.58634766 33.88236328 5.61019531 32.70222656 5.63476562 31.48632812 C5.70996909 24.69742951 5.70996909 24.69742951 2.6875 18.82421875 C1.800625 18.22222656 0.91375 17.62023437 0 17 C-0.93005859 16.34257812 -0.93005859 16.34257812 -1.87890625 15.671875 C-11.93429919 10.16590578 -20.82326746 11.05861397 -29.8125 18.25 Z " fill="#572489" transform="translate(594,309)"/>
<path d="M0 0 C3.05781208 1.40225034 3.05781208 1.40225034 6.0625 -0.4375 C10.52730498 -2.51725958 15.1528565 -2.68232185 20 -2 C22.80725695 0.80725695 22.25971107 2.5805679 22.2746582 6.51342773 C22.27976913 7.18189728 22.28488007 7.85036682 22.29014587 8.53909302 C22.30407272 10.75401708 22.3030828 12.96863105 22.30078125 15.18359375 C22.30466662 16.72054663 22.30900096 18.25749844 22.31376648 19.79444885 C22.32123542 23.0183561 22.32093267 26.24215385 22.31567383 29.46606445 C22.30987953 33.60014424 22.32680559 37.73377595 22.3500185 41.86778164 C22.36474178 45.04277676 22.36562946 48.21766364 22.36250877 51.39268684 C22.36302274 52.91694081 22.36827461 54.44120073 22.37832069 55.96542168 C22.39064053 58.09630411 22.38392119 60.22630962 22.37231445 62.35717773 C22.37294388 63.57026108 22.3735733 64.78334442 22.3742218 66.03318787 C22 69 22 69 20.70329285 70.89173889 C17.7015894 72.84482124 14.40949628 72.48113101 11 72 C9.4880204 71.47054373 7.98759774 70.90702436 6.5 70.3125 C2.20427817 68.73910955 0.27390513 69.29182985 -3.77734375 71.15234375 C-12.39195771 74.43770619 -22.21600486 73.31359806 -30.59765625 69.9609375 C-41.29364421 64.95979682 -47.60903148 58.19387616 -52.14453125 47.234375 C-54.54535448 38.15728993 -54.41542935 26.59503328 -50.265625 18.10546875 C-44.16197673 7.95156006 -36.75198755 1.98153367 -25.75 -2.25 C-16.64969183 -4.07006163 -8.65480547 -3.16959669 0 0 Z M-28.75 17.3125 C-34.18585069 23.80532165 -36.4545289 28.59669579 -36.33203125 37.015625 C-35.66202212 43.03782474 -33.38702025 47.94323299 -28.76953125 51.921875 C-22.30409521 56.35170067 -16.834585 57.99451714 -9 57 C-3.5170279 55.04458912 1.23989732 52.51087033 5 48 C5.92911902 43.60825009 5.78652613 39.16681248 5.8125 34.6875 C5.86986328 33.47642578 5.92722656 32.26535156 5.98632812 31.01757812 C6.12637734 24.33353815 6.12637734 24.33353815 3.06640625 18.63500977 C-6.59897031 10.95068005 -18.90910805 9.0372045 -28.75 17.3125 Z " fill="#582489" transform="translate(434,309)"/>
<path d="M0 0 C7.41285911 5.94526276 12.04955327 14.53223686 13.18359375 23.890625 C13.46914892 27.37369296 13.73103147 30.81754815 13.75 34.3125 C12.75 35.3125 12.75 35.3125 10.57969666 35.43275452 C9.62261307 35.43053391 8.66552948 35.42831329 7.67944336 35.42602539 C6.59839828 35.42594986 5.51735321 35.42587433 4.40354919 35.42579651 C2.639515 35.41805458 2.639515 35.41805458 0.83984375 35.41015625 C-0.35732773 35.4087413 -1.55449921 35.40732635 -2.78794861 35.40586853 C-6.62949066 35.40024979 -10.47097543 35.38769411 -14.3125 35.375 C-16.90950437 35.36998741 -19.50650965 35.36542409 -22.10351562 35.36132812 C-28.48569679 35.35027427 -34.8678443 35.33351792 -41.25 35.3125 C-40.33746639 37.25113951 -39.41172465 39.18356542 -38.48046875 41.11328125 C-37.96637451 42.19005127 -37.45228027 43.26682129 -36.92260742 44.3762207 C-34.11835005 49.29912297 -30.62811164 51.51979612 -25.25 53.3125 C-17.64164389 54.12313155 -12.11040161 53.42756086 -5.50390625 49.50390625 C-2.10090568 47.70509312 0.5704719 46.99604124 4.3125 48 C7.06180169 49.48039322 8.84941255 50.82711641 10.75 53.3125 C10.28734395 57.57921692 8.03206331 59.26834534 4.85546875 61.85546875 C-5.18840069 68.80605001 -16.42620881 69.28088459 -28.25 68.3125 C-38.56120042 66.20694566 -47.33295252 59.98615417 -53.25 51.3125 C-58.73376102 40.97569808 -60.12271695 29.51653811 -57.25 18.0625 C-53.44401467 7.39151308 -46.1178711 0.25395741 -36.20703125 -4.7109375 C-23.89256788 -9.74762233 -10.69655929 -7.23176042 0 0 Z M-39 16.375 C-40.52106343 18.34835943 -40.52106343 18.34835943 -40.25 21.3125 C-28.37 21.3125 -16.49 21.3125 -4.25 21.3125 C-7.5124469 14.78760619 -10.46277896 11.34466739 -16.8125 7.9375 C-26.37736584 5.4849703 -32.94120823 9.23428113 -39 16.375 Z " fill="#582588" transform="translate(217.25,312.6875)"/>
<path d="M0 0 C6.17418794 4.87254011 9.26735836 11.17316882 11.71875 18.52734375 C11.8249455 20.06061073 11.87728499 21.59793639 11.89575195 23.13476562 C11.91500481 24.53136414 11.91500481 24.53136414 11.93464661 25.95617676 C11.94203354 26.95934937 11.94942047 27.96252197 11.95703125 28.99609375 C11.965103 30.027948 11.97317474 31.05980225 11.98149109 32.1229248 C11.99532085 34.30507734 12.00604796 36.48725142 12.01391602 38.66943359 C12.03118323 42.01440903 12.07508588 45.35840989 12.11914062 48.703125 C12.12926287 50.82160731 12.13778043 52.94009802 12.14453125 55.05859375 C12.16203934 56.06176636 12.17954742 57.06493896 12.19758606 58.09851074 C12.19466049 59.02957642 12.19173492 59.96064209 12.1887207 60.91992188 C12.19458694 61.73916138 12.20045319 62.55840088 12.20649719 63.40246582 C11.71875 65.52734375 11.71875 65.52734375 9.87785339 67.29699707 C6.96149175 68.95886091 4.79913092 68.82344313 1.46875 68.71484375 C-0.14773438 68.67423828 -0.14773438 68.67423828 -1.796875 68.6328125 C-2.61671875 68.59800781 -3.4365625 68.56320312 -4.28125 68.52734375 C-4.29583252 67.33246338 -4.31041504 66.13758301 -4.32543945 64.90649414 C-4.38376766 60.4389169 -4.46099647 55.97182561 -4.54370117 51.50463867 C-4.576789 49.57763606 -4.60487028 47.65054029 -4.62768555 45.72338867 C-4.66153037 42.94019166 -4.7138586 40.15783604 -4.76953125 37.375 C-4.77592117 36.52462662 -4.7823111 35.67425323 -4.78889465 34.79811096 C-4.99796286 26.13536914 -6.88836948 18.62288099 -13.28125 12.52734375 C-18.41263718 9.78264828 -23.75294564 10.18998815 -29.28125 11.52734375 C-33.44592654 13.47273228 -37.31234173 15.98555551 -40.28125 19.52734375 C-40.73078882 21.61825199 -40.73078882 21.61825199 -40.66601562 23.95117188 C-40.67612671 24.84219604 -40.68623779 25.73322021 -40.69665527 26.65124512 C-40.69363403 27.61067017 -40.69061279 28.57009521 -40.6875 29.55859375 C-40.69833618 30.54605591 -40.70917236 31.53351807 -40.72033691 32.55090332 C-40.75465765 35.70978349 -40.77020608 38.86830143 -40.78125 42.02734375 C-40.79578136 46.18394429 -40.82938904 50.3397311 -40.875 54.49609375 C-40.87197876 55.4555188 -40.86895752 56.41494385 -40.86584473 57.40344238 C-40.87595581 58.29446655 -40.88606689 59.18549072 -40.89648438 60.10351562 C-40.89853882 60.88722534 -40.90059326 61.67093506 -40.90270996 62.47839355 C-41.37835735 65.05296349 -42.26606007 65.90858463 -44.28125 67.52734375 C-47.04577033 68.90960391 -49.3273863 68.62259762 -52.40625 68.58984375 C-53.50195312 68.58082031 -54.59765625 68.57179688 -55.7265625 68.5625 C-56.99113281 68.54509766 -56.99113281 68.54509766 -58.28125 68.52734375 C-58.3740049 59.87805464 -58.44504244 51.22893721 -58.48849869 42.57925892 C-58.50935753 38.5626701 -58.53764332 34.54642202 -58.58300781 30.5300293 C-58.62652746 26.65262703 -58.65039992 22.77555211 -58.66075897 18.89792442 C-58.66813947 17.41993749 -58.68255214 15.94196812 -58.70417023 14.46412086 C-58.73328761 12.39080984 -58.73720283 10.31884452 -58.73535156 8.24536133 C-58.74423401 7.06621658 -58.75311646 5.88707184 -58.76226807 4.67219543 C-58.18231412 0.88051011 -56.9370047 -0.75862741 -54.28125 -3.47265625 C-51.63666621 -4.79494814 -49.60363699 -4.56942819 -46.65625 -4.53515625 C-45.15191406 -4.52162109 -45.15191406 -4.52162109 -43.6171875 -4.5078125 C-42.84632813 -4.49621094 -42.07546875 -4.48460937 -41.28125 -4.47265625 C-40.95125 -2.82265625 -40.62125 -1.17265625 -40.28125 0.52734375 C-39.435625 -0.09140625 -38.59 -0.71015625 -37.71875 -1.34765625 C-26.50883215 -8.64834178 -10.94274949 -7.06406945 0 0 Z " fill="#572589" transform="translate(688.28125,311.47265625)"/>
<path d="M0 0 C1.02075623 0.00007553 2.04151245 0.00015106 3.09320068 0.00022888 C4.18811829 0.00539017 5.28303589 0.01055145 6.41113281 0.01586914 C8.10064056 0.01799156 8.10064056 0.01799156 9.82427979 0.02015686 C13.42096617 0.0257534 17.01759025 0.03830529 20.61425781 0.05102539 C23.053059 0.05604084 25.49186116 0.06060367 27.93066406 0.06469727 C33.90854989 0.07572169 39.8863994 0.09245641 45.86425781 0.11352539 C46.04170653 9.08048461 43.74509169 14.53952341 37.98925781 21.55102539 C37.51311035 22.14447754 37.03696289 22.73792969 36.54638672 23.34936523 C34.99472463 25.27828238 33.43106723 27.19689674 31.86425781 29.11352539 C30.20474352 31.14835892 28.54547568 33.18338943 26.88720703 35.21923828 C25.83476962 36.50882492 24.77939424 37.79602313 23.72021484 39.08007812 C18.90952787 44.94701455 14.38818122 51.02465115 9.86425781 57.11352539 C11.01015381 57.13858154 12.1560498 57.1636377 13.33666992 57.18945312 C17.57279379 57.28335645 21.8087471 57.38361814 26.04467773 57.48583984 C27.88090028 57.52925359 29.71716489 57.57092378 31.5534668 57.61083984 C34.18714092 57.66838708 36.82060202 57.73212537 39.45410156 57.79711914 C40.69316505 57.82218788 40.69316505 57.82218788 41.95726013 57.84776306 C47.75038611 57.99965368 47.75038611 57.99965368 48.86425781 59.11352539 C48.91894531 61.25805664 48.91894531 61.25805664 48.73925781 63.92602539 C48.69542969 64.7987207 48.65160156 65.67141602 48.60644531 66.57055664 C47.57351769 70.10969288 45.90559233 71.09867601 42.86425781 73.11352539 C40.06108093 73.59454346 40.06108093 73.59454346 36.97241211 73.56762695 C35.81158615 73.56732483 34.65076019 73.56702271 33.45475769 73.56671143 C32.21188492 73.54606628 30.96901215 73.52542114 29.68847656 73.50415039 C28.40818069 73.4984906 27.12788483 73.49283081 25.80879211 73.48699951 C22.41698568 73.47177991 19.02587234 73.43253173 15.63433838 73.38818359 C12.16875584 73.34715035 8.70306051 73.32897144 5.23730469 73.30883789 C-1.55401055 73.26475376 -8.34481355 73.19782717 -15.13574219 73.11352539 C-15.16967883 71.68139904 -15.19382177 70.24903853 -15.21386719 68.81665039 C-15.22836914 68.01904297 -15.24287109 67.22143555 -15.2578125 66.3996582 C-14.96814572 60.97477873 -11.51703609 57.09151822 -8.13574219 53.11352539 C-4.62464251 48.91608797 -1.19000607 44.67753186 2.17675781 40.36352539 C6.75546061 34.50396361 11.39138699 28.69264506 16.06860352 22.91137695 C18.71836057 19.68055878 18.71836057 19.68055878 20.86425781 16.11352539 C17.260243 16.026515 13.65649769 15.97313151 10.05175781 15.92602539 C9.02759766 15.90088867 8.0034375 15.87575195 6.94824219 15.84985352 C5.96533203 15.84018555 4.98242188 15.83051758 3.96972656 15.82055664 C3.06375732 15.80484619 2.15778809 15.78913574 1.22436523 15.77294922 C-1.60183108 16.18078452 -2.330205 16.97854265 -4.13574219 19.11352539 C-7.09238738 20.59184799 -9.87803956 20.17385322 -13.13574219 20.11352539 C-13.24428202 17.8854438 -13.32157526 15.65582607 -13.38574219 13.42602539 C-13.43214844 12.1846582 -13.47855469 10.94329102 -13.52636719 9.66430664 C-13.06950756 5.51145259 -12.15100962 3.95483508 -9.13574219 1.11352539 C-6.07436565 0.06230415 -3.21929281 -0.00796855 0 0 Z " fill="#582588" transform="translate(104.1357421875,306.886474609375)"/>
<path d="M0 0 C7.26 0 14.52 0 22 0 C22.06791395 10.92717983 22.12289575 21.8542183 22.15543652 32.78156185 C22.17105843 37.85616365 22.19223305 42.93061292 22.22631836 48.00512695 C22.25903594 52.90697786 22.27687912 57.80868252 22.28463173 62.71063423 C22.29015303 64.57603824 22.30093461 66.4414347 22.31719017 68.30677605 C22.33912952 70.92986915 22.34196009 73.55236628 22.34057617 76.17553711 C22.351362 76.9379924 22.36214783 77.70044769 22.3732605 78.48600769 C22.31398565 88.94356752 18.03109441 97.55458017 11.0078125 105.15625 C5.90674871 110.00707292 5.90674871 110.00707292 2.49609375 109.98046875 C-0.78396538 108.69205742 -1.90105503 107.08064252 -3.875 104.1875 C-4.49117188 103.31480469 -5.10734375 102.44210937 -5.7421875 101.54296875 C-7 99 -7 99 -6.875 96.828125 C-5.66461079 94.29927611 -3.66696656 92.98619568 -1.49609375 91.2890625 C1.73459928 88.50543665 3.20967048 85.09371171 4 81 C4.11536702 78.73921149 4.17640836 76.47545956 4.20532227 74.21191406 C4.22017166 73.20154335 4.22017166 73.20154335 4.23532104 72.17076111 C4.26681658 69.95241771 4.29164597 67.73405293 4.31640625 65.515625 C4.33698611 63.97433934 4.35798285 62.4330592 4.37937927 60.89178467 C4.4344934 56.84108962 4.48394954 52.79034453 4.53222656 48.73956299 C4.58251956 44.60367394 4.63816487 40.46785728 4.69335938 36.33203125 C4.80081052 28.22141543 4.90228428 20.11073893 5 12 C4.360625 11.690625 3.72125 11.38125 3.0625 11.0625 C1 10 1 10 0 9 C0 6.03 0 3.06 0 0 Z " fill="#582589" transform="translate(506,307)"/>
<path d="M0 0 C1.15242188 0.01804687 2.30484375 0.03609375 3.4921875 0.0546875 C4.36101562 0.07789063 5.22984375 0.10109375 6.125 0.125 C5.98348172 2.2086309 5.83662064 4.29189938 5.6875 6.375 C5.60628906 7.53515625 5.52507812 8.6953125 5.44140625 9.890625 C5.19252213 12.43477376 4.84385058 14.68453248 4.125 17.125 C3.26777344 17.15078125 2.41054688 17.1765625 1.52734375 17.203125 C-5.37343167 17.5454408 -10.29996785 17.91275349 -15.875 22.125 C-17.91186754 25.18030131 -18.12594293 25.80244237 -18.14624023 29.24169922 C-18.15642685 30.06620575 -18.16661346 30.89071228 -18.17710876 31.74020386 C-18.17924881 32.62773346 -18.18138885 33.51526306 -18.18359375 34.4296875 C-18.20875464 36.311201 -18.23415265 38.19271135 -18.25976562 40.07421875 C-18.28850355 43.03889137 -18.31252222 46.00350911 -18.33129883 48.96826172 C-18.35297309 51.83069352 -18.39241531 54.69247953 -18.43359375 57.5546875 C-18.43370956 58.43816864 -18.43382538 59.32164978 -18.4339447 60.23190308 C-18.51044123 64.99651935 -18.73263362 68.28797607 -21.875 72.125 C-25.40179099 74.47619399 -26.90379485 74.33943452 -31.0625 74.25 C-32.14917969 74.23195313 -33.23585937 74.21390625 -34.35546875 74.1953125 C-35.18691406 74.17210937 -36.01835937 74.14890625 -36.875 74.125 C-36.92138264 65.73642029 -36.95689928 57.34789436 -36.97862434 48.95921803 C-36.98905236 45.06383032 -37.00319357 41.16853049 -37.02587891 37.27319336 C-37.04764239 33.5125257 -37.05957601 29.75194245 -37.06475449 25.99121666 C-37.06844396 24.55792602 -37.07564859 23.12463988 -37.08646011 21.69138527 C-37.10102079 19.68077746 -37.10181731 17.67008434 -37.10205078 15.65942383 C-37.106492 14.51580887 -37.11093323 13.37219391 -37.11550903 12.19392395 C-36.78754385 8.00904916 -36.01692396 5.15986859 -32.875 2.3125 C-28.54737503 0.59948178 -24.47242082 0.88397017 -19.875 1.125 C-19.215 2.775 -18.555 4.425 -17.875 6.125 C-17.17375 5.50625 -16.4725 4.8875 -15.75 4.25 C-10.71108242 0.52558265 -6.17688163 -0.12605881 0 0 Z " fill="#572489" transform="translate(280.875,305.875)"/>
<path d="M0 0 C3.64581687 -0.02887512 7.29160463 -0.04675585 10.9375 -0.0625 C12.49887695 -0.07506836 12.49887695 -0.07506836 14.09179688 -0.08789062 C15.57583008 -0.09272461 15.57583008 -0.09272461 17.08984375 -0.09765625 C18.46450806 -0.10551147 18.46450806 -0.10551147 19.86694336 -0.11352539 C22 0 22 0 23 1 C23.10985839 2.99802858 23.14912058 4.99996613 23.16113281 7.00097656 C23.17074036 8.28611145 23.1803479 9.57124634 23.19024658 10.89532471 C23.19509519 12.31042301 23.19937387 13.72552336 23.203125 15.140625 C23.2088753 16.58453372 23.21463305 18.02844241 23.22039795 19.47235107 C23.23091966 22.50549679 23.23675403 25.53861593 23.24023438 28.57177734 C23.24570879 32.45344336 23.2697089 36.33475675 23.29820633 40.21631241 C23.31686063 43.20179252 23.32203988 46.18718839 23.32357025 49.17272186 C23.32659316 50.60322743 23.33460955 52.03373164 23.34775543 53.46417999 C23.36486541 55.46986421 23.36108372 57.47569348 23.35644531 59.48144531 C23.36009094 60.62204407 23.36373657 61.76264282 23.36749268 62.93780518 C22.95277318 66.39352546 22.07883952 68.23159197 20 71 C17 73 17 73 5 73 C5 52.87 5 32.74 5 12 C3.68 11.34 2.36 10.68 1 10 C0 9 0 9 -0.09765625 6.93359375 C-0.08605469 6.10988281 -0.07445312 5.28617187 -0.0625 4.4375 C-0.05347656 3.61121094 -0.04445313 2.78492188 -0.03515625 1.93359375 C-0.02355469 1.29550781 -0.01195312 0.65742188 0 0 Z " fill="#572589" transform="translate(469,307)"/>
<path d="M0 0 C3.4203866 1.17013226 3.91540482 1.87310723 6 5 C6.79875517 9.96068998 6.73404128 13.81606246 4.0625 18.125 C-0.04866631 20.6420406 -3.2936631 20.94638296 -8 20 C-10.87029869 18.20606332 -12.49131638 17.01736724 -14 14 C-14.37712577 9.00308353 -14.09290612 6.00932275 -11 2 C-7.28428072 -0.47714618 -4.3028023 -0.42593397 0 0 Z " fill="#582589" transform="translate(486,273)"/>
<path d="M0 0 C2.8100346 1.79363911 4.50940468 3.01880935 6 6 C6.42038217 14.68789809 6.42038217 14.68789809 4 18 C-0.22154756 20.81436504 -4.03975968 20.68304949 -9 20 C-11.57637471 18.11484777 -12.59667428 16.80665143 -14 14 C-14.5811138 6.91041162 -14.5811138 6.91041162 -12.125 3.0625 C-8.49059499 -0.46501074 -4.90782663 -0.7051475 0 0 Z " fill="#582489" transform="translate(523,273)"/>
</svg>
