<?xml version="1.0" encoding="UTF-8"?>
<svg id="Layer_2" data-name="Layer 2" xmlns="http://www.w3.org/2000/svg" width="664.23" height="357.19" viewBox="0 0 664.23 357.19">
  <defs>
    <style>
      .cls-1 {
        fill: #ed1c23;
      }

      .cls-2 {
        fill: #00aa8c;
      }

      .cls-3 {
        fill: #00adef;
      }

      .cls-3, .cls-4 {
        fill-rule: evenodd;
      }

      .cls-5, .cls-4 {
        fill: #231e21;
      }
    </style>
  </defs>
  <g id="Layer_1-2" data-name="Layer 1">
    <g>
      <path class="cls-5" d="M196.95,182.4s11.6-9.99,20.3-6.77c9.02,3.22,13.53,14.18,12.89,20.62-1.93,14.18-13.86,32.87-13.86,32.87,0,0,45.76-28.68,47.37-29.97,1.93-.97,3.87-1.29,6.77,0,2.58,1.29,5.48,2.9,5.16,7.73-.64,5.16,0,33.84,.64,38.67,.97,4.19-5.8,6.12-9.35,1.29-5.48-7.41-2.9-33.84-2.9-33.84,0,0-20.62,18.69-34.16,24.49-13.53,5.8-24.17,.64-25.46-5.48-1.29-6.12,15.79-32.55,14.82-40.93-1.29-8.38-2.25-4.19-13.86-5.48-5.48-.64-8.38-3.22-8.38-3.22h0Z"/>
      <path class="cls-5" d="M148.29,175.31c.64-3.55,25.78-5.16,32.55,13.53,8.38,23.2-12.57,32.87-15.15,36.74,0,0-13.54,15.15-19.98,29.65-6.12,14.18-7.41,18.69-9.34,18.05-1.93,0-3.55-17.08,1.29-31.26,4.83-13.86,10.96-30.62,14.18-41.57,0,0,2.9-13.53,1.61-17.72-1.29-3.54-5.16-7.41-5.16-7.41h0Z"/>
      <path class="cls-5" d="M.05,219.78c1.29-3.55,64.78-48.34,144.7-77.67,41.89-15.15,62.52-16.11,97.65-18.69,38.35-1.29,55.43,6.44,56.4,8.38,2.58,5.16-6.12,5.48-6.12,5.48l1.93-3.54s-15.15-.32-41.25,3.54c-22.88,3.22-50.6,9.02-98.94,28.68-15.15,6.44-33.84,19.01-46.08,25.46-37.7,19.66-50.27,25.78-71.22,32.23-24.17,6.77-38.03-.32-37.06-3.87H.05Z"/>
      <path class="cls-5" d="M293.31,196.26s6.12-.32,8.7,9.99c.97-.64,2.25-1.29,3.87-2.58,6.12-4.19,40.93-30.62,52.85-35.45,11.6-4.83,20.3,3.22,21.91,7.41,.97,2.26-1.61,3.87-1.61,3.87,0,0,.64,2.58-1.93,5.16q-1.29,1.29-1.61,3.22c-.32,2.26-1.61,5.48-4.19,4.51-2.25-.97-3.22-5.8-6.44-4.51-2.9,1.61-5.16-8.7-48.34,23.2-7.41,5.48-11.92,4.83-14.18,2.9-1.29,9.35-6.12,23.85-5.8,25.14,0,1.93,0,9.35-2.26,9.35-1.93,0-6.77-1.93-7.41-12.57-.64-10.31,4.19-26.75,5.48-31.58,1.29-4.51,.96-8.06,.96-8.06h0Z"/>
      <path class="cls-4" d="M411.9,136.96c7.41-.64,9.67,11.28,9.67,13.54,.32,4.83-1.93,11.28-1.61,13.86,0,1.29-4.51,12.89-6.77,19.01,0,0,.32,.32,.64,.32l39.64-17.4c3.22-.32,6.77,2.9,7.09,6.44,.32,4.83-8.38,4.51-10.96,5.48-13.86,6.77-30.29,13.53-42.86,21.59-1.29,.64-1.61,2.9-2.58,4.51,0,0-.32,0,.65,0s38.03,9.02,38.99,9.02c1.93,0,12.24,2.26,12.57,7.09,.32,4.51-5.8,7.73-7.41,8.06-4.84,.32-3.54-6.12-6.44-5.8-4.51,.32-34.48-10.64-42.86-5.8-7.73,4.51-5.8,14.82-9.34,22.24,2.26,2.26,2.9,1.61,2.9,3.22,.32,2.26-1.61,3.54-2.58,3.87-6.45,.32-9.35-12.57-9.67-14.18,0-.97,.32-6.77,.64-9.99-.64-.32-1.61,0-2.26,0-1.29,0-8.38,2.26-9.34,2.26-4.19,.32-8.7-7.73-9.02-10.96-.32-6.44,15.79-13.21,17.72-13.53,21.59-5.8,20.95-32.87,30.61-49.95,1.29-2.9,.97-5.8,.97-8.7,0-1.93-1.61-1.29-2.9-2.58,1.61-.97,3.55-1.61,4.51-1.61h0Z"/>
      <path class="cls-5" d="M497.62,147.92c.64,0,1.61,.32,2.26,.32,2.9,0,10.63,7.41,10.96,9.34,.32,2.26-4.51,7.41-6.44,7.41-.64,0-1.29-.32-1.61-.32-3.22,.32-5.48,.32-6.12,.32s-4.19-1.61-6.44-2.9c0-.32,4.19-14.18,7.41-14.18h0Z"/>
      <path class="cls-5" d="M489.24,175.63c4.51-.32,8.38,5.8,8.7,9.02,0,.97-11.28,32.87-11.6,33.84-2.26,6.44,3.22,12.25,3.54,14.5,.32,2.26-2.58,10.31-7.09,10.31-.97,0-1.29-.97-1.93-.97s-3.87-2.26-5.16-2.26c-.64,0-1.29,.32-1.93,.32-4.19,0-11.6-6.44-11.92-9.35-.97-5.48,22.88-49.31,27.39-55.43h0Z"/>
      <path class="cls-4" d="M624.27,200.13c6.12-3.87,12.89-8.38,18.05-10.96,9.02-4.19,21.27-12.57,21.91-17.08v-.64c-1.29-3.87-11.28-8.06-16.11-9.35-4.84-.97-7.41-1.93-12.25,.64-2.58,1.61-6.77,3.54-11.6,6.44v9.67c.32-.32,.64-.64,.64-.97,11.6-10.31,18.37-7.41,16.44-4.84-1.61,2.9-10.64,9.67-17.08,15.15v11.92h0Zm0,28.04v-15.79c10.63-6.12,25.13-15.15,28.36-17.08,4.51-2.9,3.54,.32,3.87,3.22,0,2.58-9.99,13.21-25.46,25.14-2.26,1.61-4.51,3.22-6.77,4.51h0Zm-19.66-17.4c2.9-1.93,2.9,.32,8.7-3.22,2.58-1.61,6.45-4.19,10.96-7.41v-11.92c-.32,.32-.65,.64-.97,.97-6.77,5.48-16.44,12.89-16.44,12.89,0,0,6.12-13.21,17.4-23.2v-9.67c-4.19,2.58-9.03,6.12-14.18,10.63-10.63,9.67-31.58,31.26-26.1,41.25,5.16,10.31,15.15,12.89,17.08,13.21,1.61,.32,10.96,.97,23.2-6.12v-15.79c-3.22,1.93-6.12,3.55-8.38,4.83-9.67,4.83-14.5,6.44-15.15,5.48-.64-.97,.97-9.67,3.87-11.92h0Z"/>
      <path class="cls-3" d="M200.82,.64s26.1,1.61,44.47,9.67c15.47,7.09,25.46,16.76,43.51,23.85,24.49,9.67,46.41,15.79,54.46,18.37,14.82,5.16,28.36,19.01,36.42,43.51-3.87-4.19-11.6-11.92-21.91-18.69-10.63-7.73-20.3-11.6-27.07-14.5-15.14-5.8-22.56-9.67-22.56-9.67,0,0,9.67,6.45,23.2,13.86,13.53,7.73,30.61,19.34,40.61,30.94,8.06,9.02,11.92,17.4,13.53,23.2,.64,2.58,.64,5.16,1.29,8.06,3.55,36.09,7.41,41.57,7.41,41.57-17.08-20.95-34.16-13.53-37.38-10.31,0,0-.32-10.63-.32-32.87s-17.72-39.32-24.17-44.15c-3.22-1.93-27.07-13.86-55.11-32.87-14.5-9.99-25.14-22.24-37.38-31.26C222.73,6.44,200.82,.64,200.82,.64h0Z"/>
      <path class="cls-1" d="M506.97,0s-16.44,31.58-37.06,43.51c-4.19,2.58-7.73,4.51-10.64,6.12,3.22-.97,7.09-2.26,11.6-3.87,22.56-8.06,60.91-3.22,60.91-3.22,0,0-33.84,1.93-52.53,29.97-26.75,41.25-86.37,51.56-92.81,18.05-.64-2.58,.64-5.16,1.29-7.09,18.37,11.92,37.7-6.77,51.24-24.17-22.24-.97-48.66,1.93-51.56,23.85-1.93-.97-4.51-1.61-6.12-3.87-21.91-26.43,24.49-65.1,73.48-59.3,33.52,3.87,52.21-19.98,52.21-19.98h0Z"/>
      <path class="cls-2" d="M349.06,162.1s-12.89-1.29-12.89-32.23c0-21.27,6.77-20.62,6.77-20.62,0,0,6.12,8.7,6.12,21.91v30.94h0Z"/>
      <path class="cls-5" d="M526.95,170.48s.97,6.12-.32,12.89c-1.61,6.77-14.5,24.49-5.8,30.29,7.41,4.83,46.41-28.36,53.17-27.71,1.93,.32,6.45,8.38,1.93,27.39-4.19,19.01-38.03,110.54-39.32,122.46-.97,11.92,0,20.95-4.51,21.27-14.18,1.93-24.81-18.37-21.91-35.13,2.9-17.08,45.12-81.53,51.88-96.04,10.96-23.2,8.06-28.36,8.06-28.36,0,0-27.39,25.14-42.86,26.43-15.47,.97-28.04-15.79-18.37-33.84,3.54-7.41,18.05-19.66,18.05-19.66h0Z"/>
      <path class="cls-5" d="M260.76,155.01l1.93,3.54c-2.25,5.48-4.51,6.77-6.12,7.41l-14.82,8.7c-1.29,.97-4.19,3.54-4.51,3.22-1.93-1.29-1.61-4.19-1.93-5.16,1.93-5.48,7.74-10.31,7.74-10.96,2.58-1.61,5.8-3.22,8.05-3.87l9.67-2.9h0Z"/>
      <path class="cls-5" d="M287.83,163.39l1.93,3.54c-2.26,5.48-4.51,6.77-6.12,7.09l-14.83,9.02c-1.29,.97-3.87,3.54-4.19,3.22-2.26-1.29-1.93-4.19-2.26-5.48,1.93-5.16,7.73-10.31,8.06-10.64,2.25-1.61,5.48-3.22,7.73-3.87l9.67-2.9h0Z"/>
    </g>
  </g>
</svg>